<svg width="185" height="185" viewBox="0 0 185 185" fill="none"
	xmlns="http://www.w3.org/2000/svg">
	<rect width="185" height="185" fill="black" fill-opacity="0"/>
	<circle cx="92.5" cy="92.5" r="89.5" fill="transparent" stroke="#666666" stroke-width="6"/>
	<rect width="185" height="185" fill="black" fill-opacity="0"/>
	<mask id="mask0" mask-type="alpha" maskUnits="userSpaceOnUse" x="0" y="0" width="185" height="185">
		<circle cx="92.5" cy="92.5" r="89.5" fill="white" stroke="#219653" stroke-width="6"/>
	</mask>
	<g mask="url(#mask0)">
		<rect width="148" height="188" fill="black" fill-opacity="0" transform="translate(18 17)"/>
		<path d="M165.855 196.49L160.732 177.293C157.382 164.033 146.347 154.335 132.948 152.554L121.125 150.97L117.578 140.481C127.234 133.752 134.524 123.263 137.48 110.597C140.83 108.816 146.347 104.264 146.347 92.7849C146.347 84.4726 144.968 79.5249 142.209 76.7542C140.436 74.775 138.268 74.1813 136.692 73.9834C138.071 65.4733 139.254 55.3798 139.057 49.0467C138.663 35.9846 132.357 27.6724 122.307 30.839C107.923 21.5372 87.43 14.0166 64.1783 18.1727C64.5724 19.5581 65.9517 23.7142 66.3458 25.8912C58.2668 22.1309 51.5672 22.9226 51.5672 22.9226C51.5672 22.9226 47.8233 32.8181 50.976 43.3073C49.0055 49.2446 47.6262 62.7025 48.0203 74.1813C46.4439 74.3792 44.0793 74.775 42.3059 76.7542C39.3502 79.5249 37.9708 84.6706 37.9708 92.9828C37.9708 104.462 43.4882 109.014 46.838 110.795C49.7937 123.263 57.0845 133.752 66.5428 140.481L62.996 150.97L51.1731 152.554C37.5767 154.335 26.7391 164.033 23.3893 177.293L18.266 196.49C17.6749 198.667 18.069 200.844 19.4483 202.427C20.6306 204.208 22.7981 205 24.7686 205H159.156C161.323 205 163.294 204.01 164.476 202.427C165.855 200.646 166.249 198.469 165.855 196.49ZM121.125 57.5569C124.672 62.3067 126.446 68.0461 127.234 73.5876L100.632 75.7646C97.6765 75.9625 94.9178 76.1604 91.9621 76.1604C89.0063 76.1604 86.2477 75.9625 83.2919 75.7646L56.8875 73.3897C57.6757 68.244 59.4491 62.5046 62.7989 57.161C73.2425 61.9109 92.9473 70.6189 121.125 57.5569ZM53.9318 107.034C53.7347 105.451 52.3554 104.264 50.976 103.868C50.3849 103.67 45.6557 102.087 45.6557 92.7849C45.6557 84.6706 47.0351 82.6915 47.8233 82.0977C47.8233 82.0977 48.2174 82.0977 48.4144 81.8998C48.6114 84.2747 49.0055 86.2539 49.3996 88.035C49.5967 88.8267 50.3849 89.4204 51.1731 89.4204H54.3258C55.5081 89.4204 56.2963 88.4308 56.0993 87.4413C55.9022 85.6601 55.9022 82.8894 55.9022 79.7228L61.8137 81.7019C61.8137 86.6497 62.2078 90.0141 63.193 91.9932C65.5576 96.7431 69.1045 98.9201 74.0307 98.9201C80.3362 98.9201 84.6713 96.941 87.0359 92.9828C88.2181 90.8058 89.0063 87.6392 89.2034 82.8894C89.2034 82.2956 89.7945 81.7019 90.3857 81.7019H92.9473C93.5385 81.7019 94.1296 82.2956 94.1296 82.8894C94.3266 87.6392 95.1148 90.8058 96.2971 92.9828C98.4647 96.941 102.8 98.9201 109.302 98.9201C114.229 98.9201 117.972 96.5452 120.14 91.9932C121.125 90.2121 121.519 86.6497 121.519 81.7019L127.431 79.7228C127.628 83.0873 127.431 85.858 127.431 87.6392C127.431 88.6288 128.219 89.6183 129.204 89.6183H131.766C132.751 89.6183 133.539 89.0246 133.539 88.035C133.736 86.6497 134.13 84.4726 134.722 81.8998C135.116 81.8998 135.707 81.8998 135.904 82.2956C136.298 82.6915 137.874 84.6706 137.874 92.7849C137.874 102.087 132.948 103.67 132.554 103.868C130.978 104.264 129.795 105.451 129.598 107.034C125.854 126.628 110.09 140.877 91.568 140.877C73.6366 140.877 57.6757 126.628 53.9318 107.034ZM92.1591 148.793C98.6617 148.793 104.77 147.21 110.485 144.439L114.031 154.731C101.026 164.428 83.0949 164.428 69.8927 154.731L73.4395 144.439C79.1539 147.012 85.4595 148.793 92.1591 148.793Z" fill="#666666"/>
		<path d="M92.9621 122.471C98.6765 122.471 104.194 120.294 107.15 116.93C108.135 115.742 107.938 113.961 106.755 112.972C105.573 111.982 103.8 111.982 102.815 113.368C99.0706 117.722 86.8536 117.722 83.1097 113.368C82.1244 112.18 80.351 111.982 79.1687 112.972C77.9864 113.961 77.7894 115.742 78.7746 116.93C81.9274 120.294 87.2477 122.471 92.9621 122.471Z" fill="#666666"/>
	</g>
</svg>
