<svg width="185" height="185" viewBox="0 0 185 185" fill="none"
	xmlns="http://www.w3.org/2000/svg">
	<rect width="185" height="185" fill="black" fill-opacity="0"/>
	<circle cx="92.5" cy="92.5" r="89.5" fill="transparent" stroke="#666666" stroke-width="6"/>
	<rect width="185" height="185" fill="black" fill-opacity="0"/>
	<mask id="mask0" mask-type="alpha" maskUnits="userSpaceOnUse" x="0" y="0" width="185" height="185">
		<circle cx="92.5" cy="92.5" r="89.5" fill="white" stroke="#666666" stroke-width="6"/>
	</mask>
	<g mask="url(#mask0)">
		<rect width="155" height="176" fill="black" fill-opacity="0" transform="translate(15 9)"/>
		<path d="M87.6799 122.093L82.9121 126.879C85.5422 129.52 88.9949 130.84 92.4477 130.84C95.9005 130.84 99.3532 129.52 101.983 126.879L97.2155 122.093C94.5854 124.73 90.3099 124.73 87.6799 122.093Z" fill="#666666"/>
		<path d="M121.226 82.0578L125.994 77.2717C120.734 71.988 112.18 71.988 106.923 77.2717L111.691 82.0578C114.321 79.4211 118.596 79.4211 121.226 82.0578Z" fill="#666666"/>
		<path d="M170 185C162.744 161.14 147.075 141.268 128.196 132.535C130.748 128.927 132.782 124.926 134.164 120.628C144.735 119.974 153.141 111.16 153.141 100.383C153.141 90.3404 145.834 81.9968 136.282 80.3789V39.4633C136.282 22.6645 116.617 9 92.4477 9C68.2784 9 48.6138 22.6645 48.6138 39.4633V80.3857C39.0614 82.007 31.7547 90.3471 31.7547 100.39C31.7547 111.167 40.164 119.981 50.7347 120.634C52.1408 125.014 54.2347 129.08 56.8546 132.742C37.888 141.39 22.2461 161.212 15 185H170ZM146.397 100.383C146.397 106.868 141.828 112.291 135.756 113.604C136.069 111.495 136.282 109.353 136.282 107.16V87.3245C142.081 88.8375 146.397 94.0941 146.397 100.383ZM92.7377 34.6975L98.9014 37.4459C89.8818 57.8225 78.1781 70.7389 68.4369 78.6831C64.3131 79.3905 59.9567 79.8407 55.3575 79.9896V79.597C64.9201 73.7717 81.233 60.6996 92.7377 34.6975ZM38.4983 100.39C38.4983 94.1009 42.8109 88.8443 48.6138 87.3313V107.16C48.6138 109.356 48.8263 111.499 49.1399 113.611C43.0672 112.298 38.4983 106.875 38.4983 100.39ZM55.3575 86.7592C96.0792 85.5069 119.284 61.9114 129.538 47.8339V107.16C129.538 127.688 112.898 144.392 92.4477 144.392C71.9975 144.392 55.3575 127.688 55.3575 107.16V86.7592ZM92.4477 151.162C104.674 151.162 115.737 146.098 123.698 137.965C125.569 138.753 127.407 139.64 129.201 140.649C126.881 152.201 111.515 161.171 92.8557 161.306H92.0397C73.5081 161.178 58.2337 152.326 55.752 140.889C57.5897 139.867 59.4745 138.973 61.3931 138.181C69.3372 146.19 80.3226 151.162 92.4477 151.162Z" fill="#666666"/>
		<path d="M114.365 100.383C117.158 100.383 119.422 98.1099 119.422 95.3059C119.422 92.5018 117.158 90.2286 114.365 90.2286C111.571 90.2286 109.307 92.5018 109.307 95.3059C109.307 98.1099 111.571 100.383 114.365 100.383Z" fill="#666666"/>
		<path d="M70.5308 100.383C73.3241 100.383 75.5885 98.1099 75.5885 95.3059C75.5885 92.5018 73.3241 90.2286 70.5308 90.2286C67.7375 90.2286 65.473 92.5018 65.473 95.3059C65.473 98.1099 67.7375 100.383 70.5308 100.383Z" fill="#666666"/>
		<path d="M92.4444 113.922C98.0247 113.922 102.563 109.366 102.563 103.768V90.2286H95.8196V103.768C95.8196 105.636 94.3056 107.153 92.4444 107.153C90.5865 107.153 89.0759 105.636 89.0759 103.768V90.2286H82.3322V103.768C82.3322 109.366 86.8673 113.922 92.4444 113.922Z" fill="#666666"/>
	</g>
</svg>
