<svg width="203" height="190" viewBox="0 0 203 190" fill="none"
	xmlns="http://www.w3.org/2000/svg">
	<rect width="203" height="190" fill="black" fill-opacity="0"/>
	<path d="M146.162 59.4705C141.308 51.0511 132.313 46.583 124.256 48.1717L144.985 84.1013C150.391 77.9137 151.021 67.8922 146.162 59.4705Z" fill="#666666"/>
	<path d="M96.4681 17.3761C94.0095 13.1157 89.6676 11.9513 85.4114 14.4109C81.1507 16.8706 79.9891 21.2146 82.4499 25.4751C80.4808 46.4096 66.2979 68.759 45.1409 86.9269L71.8872 133.273C98.1936 124.023 124.626 122.915 143.735 131.675C146.194 135.938 150.533 137.1 154.792 134.638C159.053 132.179 160.214 127.837 157.756 123.576L96.4681 17.3761Z" fill="#666666"/>
	<path d="M37.3458 91.9319L13.3129 105.817C-0.0714505 113.548 -3.72543 127.194 4.00206 140.584L4.87044 142.087C12.5957 155.48 26.2372 159.136 39.6193 151.402L63.6544 137.52L37.3458 91.9319Z" fill="#666666"/>
	<path d="M64.719 146.257L41.9854 159.389L67.6693 185.779C73.0623 191.319 80.1221 191.412 85.6572 186.019C91.1946 180.625 91.2893 173.56 85.8963 168.02L64.719 146.257Z" fill="#666666"/>
	<path d="M195.035 31.2405C176.853 -0.266204 140.023 7.35694e-05 140.023 7.35694e-05C140.023 7.35694e-05 168.179 12.7386 182.9 38.2518C197.625 63.7627 194.573 94.5292 194.573 94.5292C194.573 94.5292 213.222 62.7495 195.035 31.2405Z" fill="#666666"/>
	<path d="M135.514 26.233C135.514 26.233 151.377 35.1984 160.58 51.1436C169.782 67.0865 169.611 85.3154 169.611 85.3154C169.611 85.3154 181.265 65.455 169.902 45.7616C158.534 26.0637 135.514 26.233 135.514 26.233Z" fill="#666666"/>
</svg>
