<svg width="262" height="262" viewBox="0 0 262 262" fill="none"
	xmlns="http://www.w3.org/2000/svg">
	<rect width="261.29" height="261.687" fill="black" fill-opacity="0"/>
	<path d="M226.164 238.458C226.116 238.318 226.081 238.179 226.016 238.044C225.807 237.594 225.546 237.171 225.184 236.809C225.18 236.805 225.176 236.796 225.171 236.792L199.047 210.628C198.232 209.808 197.122 209.35 195.968 209.35H177.303H83.9874H65.3226C64.1685 209.35 63.058 209.808 62.2437 210.628L36.119 236.792C36.1147 236.796 36.1103 236.805 36.1059 236.809C35.7445 237.171 35.4832 237.599 35.2742 238.044C35.2132 238.179 35.1784 238.314 35.1261 238.458C34.9955 238.833 34.9171 239.212 34.8953 239.609C34.8866 239.705 34.8387 239.784 34.8387 239.88V257.325C34.8387 259.737 36.7897 261.687 39.1935 261.687H222.097C224.501 261.687 226.452 259.737 226.452 257.325V239.88C226.452 239.784 226.404 239.705 226.399 239.609C226.373 239.212 226.295 238.833 226.164 238.458ZM194.165 218.072L211.584 235.518H198.21L185.769 218.072H194.165ZM175.064 218.072L187.506 235.518H73.784L86.2258 218.072H175.064ZM67.1255 218.072H75.5216L63.0798 235.518H49.7061L67.1255 218.072ZM217.742 252.964H43.5484V244.241H65.3226H195.968H217.742V252.964Z" fill="#666666"/>
	<path d="M47.9032 148.289C50.3071 148.289 52.2581 146.34 52.2581 143.928V126.482C52.2581 124.07 50.3071 122.121 47.9032 122.121H21.7742C19.3703 122.121 17.4194 124.07 17.4194 126.482V143.928V162.176C16.0519 161.688 14.5974 161.374 13.0645 161.374C5.86161 161.374 0 167.244 0 174.458C0 181.672 5.86161 187.542 13.0645 187.542C20.2674 187.542 26.129 181.672 26.129 174.458V148.289H47.9032ZM26.129 130.843H43.5484V139.566H26.129V130.843ZM13.0645 178.819C10.665 178.819 8.70968 176.865 8.70968 174.458C8.70968 172.05 10.665 170.096 13.0645 170.096C15.464 170.096 17.4194 172.05 17.4194 174.458C17.4194 176.865 15.464 178.819 13.0645 178.819Z" fill="#666666"/>
	<path d="M235.161 109.036C225.554 109.036 217.742 116.861 217.742 126.482C217.742 129.71 218.678 132.693 220.211 135.288L210.308 145.206L216.466 151.373L226.369 141.455C228.96 142.99 231.939 143.928 235.161 143.928C244.768 143.928 252.581 136.103 252.581 126.482C252.581 116.861 244.768 109.036 235.161 109.036ZM235.161 135.205C230.358 135.205 226.451 131.293 226.451 126.482C226.451 121.671 230.358 117.759 235.161 117.759C239.965 117.759 243.871 121.671 243.871 126.482C243.871 131.293 239.965 135.205 235.161 135.205Z" fill="#666666"/>
	<path d="M4.35484 61.0605H65.3226V52.3376H60.9677V13.0846H52.2581V52.3376H43.5484V21.8075H34.8387V52.3376H26.129V30.5303H17.4194V52.3376H8.70968V0.000244141H0V56.699C0 59.1109 1.95097 61.0605 4.35484 61.0605Z" fill="#666666"/>
	<path d="M113.226 69.7833C113.226 65.2736 114.641 61.0517 116.61 57.3358C120.455 60.5371 123.839 61.5925 126.604 61.5925C128.154 61.5925 129.513 61.2654 130.649 60.8162C145.783 54.7974 147.808 12.8403 148.065 4.4925C148.112 2.97036 147.363 1.53544 146.087 0.70677C144.811 -0.121904 143.205 -0.23094 141.828 0.427638C140.548 1.04696 110.356 15.7101 107.042 35.0837C106.114 40.5006 107.273 45.6645 110.465 50.5101C107.151 55.8747 104.516 62.443 104.516 69.7833H113.226ZM115.625 36.5666C117.267 26.9321 129.853 17.4067 138.954 11.9288C137.556 31.0624 133.193 50.4185 127.431 52.7083C125.676 53.3974 123.225 51.6266 121.513 50.0739C125.236 45.5729 128.829 42.7991 128.903 42.7424L123.677 35.7641C123.355 36.0083 120.037 38.5554 116.261 42.7947C115.49 40.7579 115.264 38.6906 115.625 36.5666Z" fill="#666666"/>
	<path d="M148.064 122.121C138.458 122.121 130.645 129.945 130.645 139.566C130.645 149.188 138.458 157.012 148.064 157.012C157.671 157.012 165.484 149.188 165.484 139.566C165.484 129.945 157.671 122.121 148.064 122.121ZM148.064 148.289C143.261 148.289 139.355 144.377 139.355 139.566C139.355 134.756 143.261 130.843 148.064 130.843C152.868 130.843 156.774 134.756 156.774 139.566C156.774 144.377 152.868 148.289 148.064 148.289Z" fill="#666666"/>
	<path d="M189.649 152.411C195.711 151.277 200.323 145.96 200.323 139.566C200.323 133.172 195.711 127.856 189.649 126.722C184.079 108.447 167.439 95.9519 148.065 95.9519C124.052 95.9519 104.516 115.517 104.516 139.566C104.516 163.615 124.052 183.181 148.065 183.181C167.439 183.181 184.079 170.685 189.649 152.411ZM187.258 143.928C186.979 143.928 186.731 143.819 186.465 143.766C186.06 143.692 185.669 143.592 185.316 143.417C185.176 143.348 185.063 143.243 184.937 143.16C184.628 142.964 184.323 142.759 184.075 142.493C183.909 142.31 183.796 142.087 183.661 141.882C183.509 141.651 183.334 141.437 183.225 141.18C183.03 140.679 182.903 140.138 182.903 139.566C182.903 138.995 183.03 138.454 183.23 137.953C183.334 137.695 183.513 137.482 183.665 137.25C183.8 137.041 183.909 136.819 184.079 136.64C184.327 136.374 184.632 136.173 184.941 135.973C185.072 135.89 185.185 135.785 185.32 135.715C185.673 135.541 186.069 135.44 186.47 135.366C186.731 135.314 186.979 135.205 187.258 135.205C189.658 135.205 191.613 137.159 191.613 139.566C191.613 141.974 189.658 143.928 187.258 143.928ZM148.065 174.458C128.855 174.458 113.226 158.805 113.226 139.566C113.226 120.328 128.855 104.675 148.065 104.675C162.897 104.675 176.158 114.34 180.957 128.139C180.822 128.213 180.7 128.309 180.569 128.388C180.255 128.576 179.942 128.763 179.646 128.977C179.123 129.352 178.627 129.753 178.169 130.198C177.995 130.368 177.843 130.56 177.677 130.739C177.329 131.114 177.002 131.511 176.702 131.925C176.554 132.13 176.41 132.331 176.271 132.544C175.883 133.146 175.535 133.766 175.247 134.429C175.208 134.525 175.182 134.625 175.143 134.716C174.895 135.331 174.703 135.968 174.551 136.622C174.503 136.827 174.459 137.028 174.424 137.237C174.289 137.992 174.194 138.768 174.194 139.566C174.194 140.364 174.289 141.141 174.429 141.904C174.468 142.113 174.511 142.314 174.555 142.519C174.707 143.173 174.899 143.81 175.147 144.425C175.186 144.521 175.208 144.617 175.247 144.713C175.53 145.371 175.883 145.995 176.271 146.597C176.406 146.811 176.554 147.011 176.698 147.216C176.998 147.631 177.325 148.023 177.673 148.403C177.839 148.581 177.991 148.773 178.165 148.943C178.622 149.388 179.119 149.79 179.641 150.165C179.938 150.378 180.251 150.566 180.565 150.753C180.695 150.832 180.817 150.928 180.952 151.002C176.158 164.793 162.897 174.458 148.065 174.458Z" fill="#666666"/>
	<path d="M100.161 117.759C100.161 96.1135 82.5765 78.5063 60.9678 78.5063V87.2292C77.7775 87.2292 91.4516 100.929 91.4516 117.759H100.161Z" fill="#666666"/>
	<path d="M204.677 196.265H213.387C213.387 179.434 227.061 165.735 243.871 165.735V157.012C222.262 157.012 204.677 174.619 204.677 196.265Z" fill="#666666"/>
	<path d="M8.70968 100.313H17.4194V91.5905H26.129V82.8677H17.4194V74.1448H8.70968V82.8677H0V91.5905H8.70968V100.313Z" fill="#666666"/>
	<path d="M156.774 61.0605V69.7834H148.065V78.5063H156.774V87.2292H165.484V78.5063H174.194V69.7834H165.484V61.0605H156.774Z" fill="#666666"/>
	<path d="M152.419 191.904H143.71V200.627H152.419V191.904Z" fill="#666666"/>
	<path d="M56.6129 104.675H47.9032V113.398H56.6129V104.675Z" fill="#666666"/>
	<path d="M261.29 157.012H252.581V165.735H261.29V157.012Z" fill="#666666"/>
	<path d="M43.5484 170.097C60.3581 170.097 74.0323 183.796 74.0323 200.627H82.742C82.742 178.981 65.1571 161.374 43.5484 161.374V170.097Z" fill="#666666"/>
	<path d="M256.935 0.000244141H195.968C188.765 0.000244141 182.903 5.87075 182.903 13.0846V69.7833C182.903 76.9972 188.765 82.8677 195.968 82.8677H256.935C259.339 82.8677 261.29 80.9181 261.29 78.5062V21.8075V4.36169C261.29 1.94981 259.339 0.000244141 256.935 0.000244141ZM195.968 8.72313H252.581V17.446H195.968C193.568 17.446 191.613 15.4921 191.613 13.0846C191.613 10.6771 193.568 8.72313 195.968 8.72313ZM252.581 74.1448H195.968C193.568 74.1448 191.613 72.1909 191.613 69.7833V25.4231C191.987 25.5539 192.388 25.6281 192.776 25.7284C193.024 25.7895 193.259 25.8723 193.512 25.9203C194.309 26.073 195.127 26.1689 195.968 26.1689H252.581V74.1448Z" fill="#666666"/>
	<path d="M243.871 34.8918H200.323V43.6147H243.871V34.8918Z" fill="#666666"/>
</svg>
